<svg width="121" height="15" viewBox="0 0 121 15" fill="none" xmlns="http://www.w3.org/2000/svg">
<path d="M8.696 8.208C8.776 8.20267 8.848 8.232 8.912 8.296L9.392 8.808C9.088 9.16 8.71467 9.43467 8.272 9.632C7.83467 9.824 7.30667 9.92 6.688 9.92C6.16533 9.92 5.688 9.82933 5.256 9.648C4.82933 9.46667 4.46133 9.21333 4.152 8.888C3.848 8.56267 3.61067 8.176 3.44 7.728C3.27467 7.28 3.192 6.78933 3.192 6.256C3.192 5.71733 3.28267 5.224 3.464 4.776C3.64533 4.32267 3.89867 3.936 4.224 3.616C4.54933 3.29067 4.93333 3.04 5.376 2.864C5.824 2.68267 6.30933 2.592 6.832 2.592C7.41333 2.592 7.904 2.68267 8.304 2.864C8.70933 3.04 9.064 3.27733 9.368 3.576L9 4.096C8.97333 4.128 8.93867 4.16 8.896 4.192C8.85333 4.224 8.80267 4.24 8.744 4.24C8.66933 4.24 8.58933 4.21067 8.504 4.152C8.424 4.09333 8.31733 4.02933 8.184 3.96C8.05067 3.88533 7.88 3.81867 7.672 3.76C7.46933 3.696 7.21333 3.664 6.904 3.664C6.52533 3.664 6.18667 3.72533 5.888 3.848C5.58933 3.96533 5.33333 4.136 5.12 4.36C4.90667 4.584 4.744 4.856 4.632 5.176C4.52 5.496 4.464 5.856 4.464 6.256C4.464 6.66667 4.52 7.03467 4.632 7.36C4.74933 7.68 4.90933 7.94933 5.112 8.168C5.31467 8.38667 5.55467 8.55467 5.832 8.672C6.11467 8.784 6.42133 8.84 6.752 8.84C7.02933 8.84 7.26133 8.81867 7.448 8.776C7.63467 8.73333 7.79733 8.68267 7.936 8.624C8.08 8.56 8.208 8.49067 8.32 8.416C8.43733 8.34133 8.56267 8.272 8.696 8.208ZM0.808 6.272C0.808 5.73333 0.877333 5.216 1.016 4.72C1.15467 4.21867 1.352 3.752 1.608 3.32C1.864 2.88267 2.168 2.488 2.52 2.136C2.87733 1.77867 3.272 1.472 3.704 1.216C4.136 0.96 4.6 0.762666 5.096 0.624C5.592 0.485333 6.10933 0.415999 6.648 0.415999C7.18667 0.415999 7.704 0.485333 8.2 0.624C8.70133 0.762666 9.168 0.96 9.6 1.216C10.032 1.472 10.4267 1.77867 10.784 2.136C11.1413 2.488 11.4453 2.88267 11.696 3.32C11.952 3.752 12.1493 4.21867 12.288 4.72C12.4267 5.216 12.496 5.73333 12.496 6.272C12.496 6.80533 12.4267 7.32267 12.288 7.824C12.1493 8.32 11.952 8.784 11.696 9.216C11.4453 9.648 11.1413 10.0427 10.784 10.4C10.4267 10.752 10.032 11.056 9.6 11.312C9.168 11.568 8.70133 11.7653 8.2 11.904C7.704 12.0427 7.18667 12.112 6.648 12.112C6.10933 12.112 5.592 12.0427 5.096 11.904C4.6 11.7653 4.136 11.568 3.704 11.312C3.272 11.056 2.87733 10.752 2.52 10.4C2.168 10.0427 1.864 9.648 1.608 9.216C1.352 8.784 1.15467 8.32 1.016 7.824C0.877333 7.328 0.808 6.81067 0.808 6.272ZM1.616 6.272C1.616 6.74667 1.67467 7.20267 1.792 7.64C1.90933 8.07733 2.07467 8.488 2.288 8.872C2.50667 9.25067 2.768 9.59467 3.072 9.904C3.38133 10.2133 3.72 10.48 4.088 10.704C4.46133 10.9227 4.864 11.0933 5.296 11.216C5.728 11.3333 6.17867 11.392 6.648 11.392C7.11733 11.392 7.568 11.3333 8 11.216C8.43733 11.0933 8.84267 10.9227 9.216 10.704C9.59467 10.48 9.936 10.2133 10.24 9.904C10.5493 9.59467 10.8133 9.25067 11.032 8.872C11.2507 8.488 11.4187 8.07733 11.536 7.64C11.6587 7.20267 11.72 6.74667 11.72 6.272C11.72 5.55733 11.5867 4.888 11.32 4.264C11.0587 3.63467 10.6987 3.088 10.24 2.624C9.78667 2.15467 9.25067 1.78667 8.632 1.52C8.01333 1.248 7.352 1.112 6.648 1.112C6.17867 1.112 5.728 1.17333 5.296 1.296C4.864 1.41867 4.46133 1.592 4.088 1.816C3.72 2.03467 3.38133 2.30133 3.072 2.616C2.768 2.93067 2.50667 3.28 2.288 3.664C2.07467 4.04267 1.90933 4.45333 1.792 4.896C1.67467 5.33867 1.616 5.79733 1.616 6.272ZM30.7826 0.535999V12H29.4226V3.576C29.4226 3.464 29.4253 3.344 29.4306 3.216C29.4413 3.088 29.452 2.95733 29.4626 2.824L25.5266 9.992C25.404 10.232 25.2173 10.352 24.9666 10.352H24.7426C24.492 10.352 24.3053 10.232 24.1826 9.992L20.1666 2.792C20.1986 3.07467 20.2146 3.336 20.2146 3.576V12H18.8546V0.535999H19.9986C20.1373 0.535999 20.244 0.549333 20.3186 0.575999C20.3933 0.602666 20.4653 0.677333 20.5346 0.799999L24.4946 7.856C24.5586 7.984 24.62 8.11733 24.6786 8.256C24.7426 8.39467 24.8013 8.536 24.8546 8.68C24.908 8.536 24.964 8.39467 25.0226 8.256C25.0813 8.112 25.1453 7.976 25.2146 7.848L29.1026 0.799999C29.1666 0.677333 29.236 0.602666 29.3106 0.575999C29.3906 0.549333 29.5 0.535999 29.6386 0.535999H30.7826ZM43.026 6.488V10.888C42.45 11.304 41.834 11.616 41.178 11.824C40.5273 12.0267 39.8127 12.128 39.034 12.128C38.1113 12.128 37.2793 11.9867 36.538 11.704C35.7967 11.416 35.162 11.016 34.634 10.504C34.1113 9.98667 33.7087 9.368 33.426 8.648C33.1433 7.928 33.002 7.136 33.002 6.272C33.002 5.39733 33.138 4.6 33.41 3.88C33.6873 3.16 34.0793 2.544 34.586 2.032C35.0927 1.51467 35.7087 1.11467 36.434 0.832C37.1593 0.549333 37.97 0.407999 38.866 0.407999C39.3193 0.407999 39.7407 0.442666 40.13 0.511999C40.5193 0.576 40.8793 0.672 41.21 0.799999C41.5407 0.922666 41.8473 1.07467 42.13 1.256C42.4127 1.432 42.6767 1.632 42.922 1.856L42.482 2.56C42.4127 2.66667 42.322 2.736 42.21 2.768C42.1033 2.79467 41.9833 2.768 41.85 2.688C41.722 2.61333 41.5753 2.52267 41.41 2.416C41.2447 2.30933 41.042 2.208 40.802 2.112C40.5673 2.01067 40.2873 1.92533 39.962 1.856C39.642 1.78667 39.2607 1.752 38.818 1.752C38.1727 1.752 37.5887 1.85867 37.066 2.072C36.5433 2.28 36.098 2.58133 35.73 2.976C35.362 3.36533 35.0793 3.84 34.882 4.4C34.6847 4.95467 34.586 5.57867 34.586 6.272C34.586 6.992 34.6873 7.63733 34.89 8.208C35.098 8.77333 35.3913 9.256 35.77 9.656C36.154 10.0507 36.618 10.352 37.162 10.56C37.706 10.768 38.3167 10.872 38.994 10.872C39.5273 10.872 39.9993 10.8133 40.41 10.696C40.826 10.5733 41.2313 10.4053 41.626 10.192V7.672H39.842C39.7407 7.672 39.658 7.64267 39.594 7.584C39.5353 7.52533 39.506 7.45333 39.506 7.368V6.488H43.026ZM49.4255 10.768C49.8682 10.768 50.2495 10.7173 50.5695 10.616C50.8895 10.5147 51.1508 10.3733 51.3535 10.192C51.5615 10.0053 51.7135 9.78667 51.8095 9.536C51.9055 9.28 51.9535 9 51.9535 8.696C51.9535 8.104 51.7428 7.63733 51.3215 7.296C50.9002 6.94933 50.2682 6.776 49.4255 6.776H46.9455V10.768H49.4255ZM46.9455 1.76V5.672H48.9935C49.4308 5.672 49.8095 5.624 50.1295 5.528C50.4548 5.432 50.7215 5.29867 50.9295 5.128C51.1428 4.95733 51.3002 4.752 51.4015 4.512C51.5028 4.26667 51.5535 4 51.5535 3.712C51.5535 3.03467 51.3508 2.54133 50.9455 2.232C50.5402 1.91733 49.9108 1.76 49.0575 1.76H46.9455ZM49.0575 0.535999C49.7615 0.535999 50.3668 0.605333 50.8735 0.743999C51.3855 0.882666 51.8042 1.08 52.1295 1.336C52.4602 1.592 52.7028 1.90667 52.8575 2.28C53.0122 2.648 53.0895 3.064 53.0895 3.528C53.0895 3.81067 53.0442 4.08267 52.9535 4.344C52.8682 4.6 52.7375 4.84 52.5615 5.064C52.3855 5.288 52.1615 5.49067 51.8895 5.672C51.6228 5.848 51.3082 5.992 50.9455 6.104C51.7882 6.264 52.4202 6.56533 52.8415 7.008C53.2682 7.44533 53.4815 8.02133 53.4815 8.736C53.4815 9.22133 53.3908 9.664 53.2095 10.064C53.0335 10.464 52.7722 10.808 52.4255 11.096C52.0842 11.384 51.6628 11.608 51.1615 11.768C50.6602 11.9227 50.0895 12 49.4495 12H45.4015V0.535999H49.0575ZM57.2893 5.56H57.8733C58.0759 5.56 58.2386 5.536 58.3613 5.488C58.4839 5.43467 58.5959 5.34667 58.6973 5.224L62.5133 0.903999C62.6199 0.765333 62.7319 0.669333 62.8493 0.615999C62.9666 0.562666 63.1106 0.535999 63.2812 0.535999H64.5933L60.2253 5.472C60.1186 5.6 60.0146 5.70667 59.9133 5.792C59.8173 5.872 59.7133 5.93867 59.6013 5.992C59.7453 6.04 59.8759 6.112 59.9933 6.208C60.1106 6.29867 60.2253 6.41867 60.3373 6.568L64.8973 12H63.5533C63.4519 12 63.3639 11.9947 63.2893 11.984C63.2199 11.968 63.1586 11.9467 63.1053 11.92C63.0519 11.888 63.0039 11.8533 62.9613 11.816C62.9239 11.7733 62.8866 11.7253 62.8493 11.672L58.8973 7.12C58.7906 6.98667 58.6759 6.89333 58.5533 6.84C58.4306 6.78133 58.2439 6.752 57.9933 6.752H57.2893V12H55.7453V0.535999H57.2893V5.56ZM82.3608 0.535999V12H81.0008V3.576C81.0008 3.464 81.0034 3.344 81.0088 3.216C81.0194 3.088 81.0301 2.95733 81.0408 2.824L77.1048 9.992C76.9821 10.232 76.7954 10.352 76.5448 10.352H76.3208C76.0701 10.352 75.8834 10.232 75.7608 9.992L71.7448 2.792C71.7768 3.07467 71.7928 3.336 71.7928 3.576V12H70.4328V0.535999H71.5768C71.7154 0.535999 71.8221 0.549333 71.8968 0.575999C71.9714 0.602666 72.0434 0.677333 72.1128 0.799999L76.0728 7.856C76.1368 7.984 76.1981 8.11733 76.2568 8.256C76.3208 8.39467 76.3794 8.536 76.4328 8.68C76.4861 8.536 76.5421 8.39467 76.6008 8.256C76.6594 8.112 76.7234 7.976 76.7928 7.848L80.6808 0.799999C80.7448 0.677333 80.8141 0.602666 80.8888 0.575999C80.9688 0.549333 81.0781 0.535999 81.2168 0.535999H82.3608ZM89.1138 8.352C88.4578 8.37333 87.8978 8.42667 87.4338 8.512C86.9751 8.592 86.5991 8.69867 86.3058 8.832C86.0178 8.96533 85.8071 9.12267 85.6738 9.304C85.5458 9.48533 85.4818 9.688 85.4818 9.912C85.4818 10.1253 85.5164 10.3093 85.5858 10.464C85.6551 10.6187 85.7484 10.7467 85.8658 10.848C85.9884 10.944 86.1298 11.016 86.2898 11.064C86.4551 11.1067 86.6311 11.128 86.8178 11.128C87.0684 11.128 87.2978 11.104 87.5058 11.056C87.7138 11.0027 87.9084 10.928 88.0898 10.832C88.2764 10.736 88.4524 10.6213 88.6178 10.488C88.7884 10.3547 88.9538 10.2027 89.1138 10.032V8.352ZM84.5138 5.04C84.9618 4.608 85.4444 4.28533 85.9618 4.072C86.4791 3.85867 87.0524 3.752 87.6818 3.752C88.1351 3.752 88.5378 3.82667 88.8898 3.976C89.2418 4.12533 89.5378 4.33333 89.7778 4.6C90.0178 4.86667 90.1991 5.18933 90.3218 5.568C90.4444 5.94667 90.5058 6.36267 90.5058 6.816V12H89.8738C89.7351 12 89.6284 11.9787 89.5538 11.936C89.4791 11.888 89.4204 11.7973 89.3778 11.664L89.2178 10.896C89.0044 11.0933 88.7964 11.2693 88.5938 11.424C88.3911 11.5733 88.1778 11.7013 87.9538 11.808C87.7298 11.9093 87.4898 11.9867 87.2338 12.04C86.9831 12.0987 86.7031 12.128 86.3938 12.128C86.0791 12.128 85.7831 12.0853 85.5058 12C85.2284 11.9093 84.9858 11.776 84.7778 11.6C84.5751 11.424 84.4124 11.2027 84.2898 10.936C84.1724 10.664 84.1138 10.344 84.1138 9.976C84.1138 9.656 84.2018 9.34933 84.3778 9.056C84.5538 8.75733 84.8391 8.49333 85.2338 8.264C85.6284 8.03467 86.1431 7.848 86.7778 7.704C87.4124 7.55467 88.1911 7.46933 89.1138 7.448V6.816C89.1138 6.18667 88.9778 5.712 88.7058 5.392C88.4338 5.06667 88.0364 4.904 87.5138 4.904C87.1618 4.904 86.8658 4.94933 86.6258 5.04C86.3911 5.12533 86.1858 5.224 86.0098 5.336C85.8391 5.44267 85.6898 5.54133 85.5618 5.632C85.4391 5.71733 85.3164 5.76 85.1938 5.76C85.0978 5.76 85.0151 5.736 84.9458 5.688C84.8764 5.63467 84.8178 5.57067 84.7697 5.496L84.5138 5.04ZM94.1469 0.216V12H92.7229V0.216H94.1469ZM100.848 8.352C100.192 8.37333 99.6321 8.42667 99.1681 8.512C98.7095 8.592 98.3335 8.69867 98.0401 8.832C97.7521 8.96533 97.5415 9.12267 97.4081 9.304C97.2801 9.48533 97.2161 9.688 97.2161 9.912C97.2161 10.1253 97.2508 10.3093 97.3201 10.464C97.3895 10.6187 97.4828 10.7467 97.6001 10.848C97.7228 10.944 97.8641 11.016 98.0241 11.064C98.1895 11.1067 98.3655 11.128 98.5521 11.128C98.8028 11.128 99.0321 11.104 99.2401 11.056C99.4481 11.0027 99.6428 10.928 99.8241 10.832C100.011 10.736 100.187 10.6213 100.352 10.488C100.523 10.3547 100.688 10.2027 100.848 10.032V8.352ZM96.2481 5.04C96.6961 4.608 97.1788 4.28533 97.6961 4.072C98.2135 3.85867 98.7868 3.752 99.4161 3.752C99.8695 3.752 100.272 3.82667 100.624 3.976C100.976 4.12533 101.272 4.33333 101.512 4.6C101.752 4.86667 101.933 5.18933 102.056 5.568C102.179 5.94667 102.24 6.36267 102.24 6.816V12H101.608C101.469 12 101.363 11.9787 101.288 11.936C101.213 11.888 101.155 11.7973 101.112 11.664L100.952 10.896C100.739 11.0933 100.531 11.2693 100.328 11.424C100.125 11.5733 99.9121 11.7013 99.6881 11.808C99.4641 11.9093 99.2241 11.9867 98.9681 12.04C98.7175 12.0987 98.4375 12.128 98.1281 12.128C97.8135 12.128 97.5175 12.0853 97.2401 12C96.9628 11.9093 96.7201 11.776 96.5121 11.6C96.3095 11.424 96.1468 11.2027 96.0241 10.936C95.9068 10.664 95.8481 10.344 95.8481 9.976C95.8481 9.656 95.9361 9.34933 96.1121 9.056C96.2881 8.75733 96.5735 8.49333 96.9681 8.264C97.3628 8.03467 97.8775 7.848 98.5121 7.704C99.1468 7.55467 99.9255 7.46933 100.848 7.448V6.816C100.848 6.18667 100.712 5.712 100.44 5.392C100.168 5.06667 99.7708 4.904 99.2481 4.904C98.8961 4.904 98.6001 4.94933 98.3601 5.04C98.1255 5.12533 97.9201 5.224 97.7441 5.336C97.5735 5.44267 97.4241 5.54133 97.2961 5.632C97.1735 5.71733 97.0508 5.76 96.9281 5.76C96.8321 5.76 96.7495 5.736 96.6801 5.688C96.6108 5.63467 96.5521 5.57067 96.5041 5.496L96.2481 5.04ZM105.753 5.072C105.929 4.87467 106.116 4.696 106.313 4.536C106.511 4.376 106.719 4.24 106.937 4.128C107.161 4.01067 107.396 3.92267 107.641 3.864C107.892 3.8 108.161 3.768 108.449 3.768C108.892 3.768 109.281 3.84267 109.617 3.992C109.959 4.136 110.241 4.344 110.465 4.616C110.695 4.88267 110.868 5.20533 110.985 5.584C111.103 5.96267 111.161 6.38133 111.161 6.84V12H109.729V6.84C109.729 6.22667 109.588 5.752 109.305 5.416C109.028 5.07467 108.604 4.904 108.033 4.904C107.612 4.904 107.217 5.00533 106.849 5.208C106.487 5.41067 106.151 5.68533 105.841 6.032V12H104.409V3.896H105.265C105.468 3.896 105.593 3.99467 105.641 4.192L105.753 5.072ZM116.155 8.04C116.443 8.04 116.696 8 116.915 7.92C117.134 7.84 117.318 7.728 117.467 7.584C117.616 7.44 117.728 7.26933 117.803 7.072C117.878 6.86933 117.915 6.648 117.915 6.408C117.915 5.912 117.763 5.51733 117.459 5.224C117.16 4.93067 116.726 4.784 116.155 4.784C115.579 4.784 115.139 4.93067 114.835 5.224C114.536 5.51733 114.387 5.912 114.387 6.408C114.387 6.648 114.424 6.86933 114.499 7.072C114.579 7.26933 114.694 7.44 114.843 7.584C114.992 7.728 115.176 7.84 115.395 7.92C115.614 8 115.867 8.04 116.155 8.04ZM118.723 12.44C118.723 12.2427 118.667 12.0827 118.555 11.96C118.443 11.8373 118.291 11.7413 118.099 11.672C117.912 11.6027 117.694 11.5547 117.443 11.528C117.192 11.496 116.926 11.472 116.643 11.456C116.366 11.44 116.083 11.424 115.795 11.408C115.507 11.392 115.23 11.3653 114.963 11.328C114.664 11.4667 114.419 11.6427 114.227 11.856C114.04 12.064 113.947 12.3093 113.947 12.592C113.947 12.7733 113.992 12.9413 114.083 13.096C114.179 13.256 114.323 13.392 114.515 13.504C114.707 13.6213 114.947 13.712 115.235 13.776C115.528 13.8453 115.872 13.88 116.267 13.88C116.651 13.88 116.995 13.8453 117.299 13.776C117.603 13.7067 117.859 13.608 118.067 13.48C118.28 13.352 118.443 13.2 118.555 13.024C118.667 12.848 118.723 12.6533 118.723 12.44ZM120.171 4.216V4.744C120.171 4.92 120.059 5.032 119.835 5.08L118.915 5.2C119.096 5.552 119.187 5.94133 119.187 6.368C119.187 6.76267 119.11 7.12267 118.955 7.448C118.806 7.768 118.598 8.04267 118.331 8.272C118.064 8.50133 117.744 8.67733 117.371 8.8C116.998 8.92267 116.592 8.984 116.155 8.984C115.776 8.984 115.419 8.93867 115.083 8.848C114.912 8.95467 114.782 9.06933 114.691 9.192C114.6 9.30933 114.555 9.42933 114.555 9.552C114.555 9.744 114.632 9.89067 114.787 9.992C114.947 10.088 115.155 10.1573 115.411 10.2C115.667 10.2427 115.958 10.2693 116.283 10.28C116.614 10.2907 116.95 10.3093 117.291 10.336C117.638 10.3573 117.974 10.3973 118.299 10.456C118.63 10.5147 118.923 10.6107 119.179 10.744C119.435 10.8773 119.64 11.0613 119.795 11.296C119.955 11.5307 120.035 11.8347 120.035 12.208C120.035 12.5547 119.947 12.8907 119.771 13.216C119.6 13.5413 119.352 13.8293 119.027 14.08C118.702 14.336 118.302 14.5387 117.827 14.688C117.358 14.8427 116.827 14.92 116.235 14.92C115.643 14.92 115.126 14.8613 114.683 14.744C114.24 14.6267 113.872 14.4693 113.579 14.272C113.286 14.0747 113.064 13.8453 112.915 13.584C112.771 13.328 112.699 13.0587 112.699 12.776C112.699 12.376 112.824 12.0373 113.075 11.76C113.326 11.4827 113.67 11.2613 114.107 11.096C113.867 10.9893 113.675 10.848 113.531 10.672C113.392 10.4907 113.323 10.248 113.323 9.944C113.323 9.82667 113.344 9.70667 113.387 9.584C113.43 9.456 113.494 9.33067 113.579 9.208C113.67 9.08 113.779 8.96 113.907 8.848C114.035 8.736 114.184 8.63733 114.355 8.552C113.955 8.328 113.643 8.032 113.419 7.664C113.195 7.29067 113.083 6.85867 113.083 6.368C113.083 5.97333 113.158 5.616 113.307 5.296C113.462 4.97067 113.675 4.696 113.947 4.472C114.219 4.24267 114.542 4.06667 114.915 3.944C115.294 3.82133 115.707 3.76 116.155 3.76C116.507 3.76 116.835 3.8 117.139 3.88C117.443 3.95467 117.72 4.06667 117.971 4.216H120.171Z" fill="#4A4A4A"/>
</svg>
