<svg width="14" height="16" viewBox="0 0 14 16" fill="none" xmlns="http://www.w3.org/2000/svg">
<g clip-path="url(#clip0)">
<path d="M8.04685 13.9096L7.3531 14.6033C7.05935 14.8971 6.58435 14.8971 6.29373 14.6033L0.218726 8.53145C-0.0750244 8.2377 -0.0750244 7.7627 0.218726 7.47207L6.29373 1.39707C6.58748 1.10332 7.06248 1.10332 7.3531 1.39707L8.04685 2.09082C8.34373 2.3877 8.33748 2.87207 8.03435 3.1627L4.26873 6.7502H13.25C13.6656 6.7502 14 7.08457 14 7.5002V8.5002C14 8.91582 13.6656 9.2502 13.25 9.2502H4.26873L8.03435 12.8377C8.3406 13.1283 8.34685 13.6127 8.04685 13.9096Z" fill="white"/>
</g>
<defs>
<clipPath id="clip0">
<rect width="14" height="16" fill="white"/>
</clipPath>
</defs>
</svg>
