<svg width="14" height="10" viewBox="0 0 14 10" fill="none" xmlns="http://www.w3.org/2000/svg">
<path d="M13.5 8H0.5C0.367392 8 0.240215 8.05268 0.146447 8.14645C0.0526784 8.24021 0 8.36739 0 8.5L0 9.5C0 9.63261 0.0526784 9.75979 0.146447 9.85355C0.240215 9.94732 0.367392 10 0.5 10H13.5C13.6326 10 13.7598 9.94732 13.8536 9.85355C13.9473 9.75979 14 9.63261 14 9.5V8.5C14 8.36739 13.9473 8.24021 13.8536 8.14645C13.7598 8.05268 13.6326 8 13.5 8ZM13.5 4H0.5C0.367392 4 0.240215 4.05268 0.146447 4.14645C0.0526784 4.24021 0 4.36739 0 4.5L0 5.5C0 5.63261 0.0526784 5.75979 0.146447 5.85355C0.240215 5.94732 0.367392 6 0.5 6H13.5C13.6326 6 13.7598 5.94732 13.8536 5.85355C13.9473 5.75979 14 5.63261 14 5.5V4.5C14 4.36739 13.9473 4.24021 13.8536 4.14645C13.7598 4.05268 13.6326 4 13.5 4ZM13.5 0H0.5C0.367392 0 0.240215 0.0526784 0.146447 0.146447C0.0526784 0.240215 0 0.367392 0 0.5L0 1.5C0 1.63261 0.0526784 1.75979 0.146447 1.85355C0.240215 1.94732 0.367392 2 0.5 2H13.5C13.6326 2 13.7598 1.94732 13.8536 1.85355C13.9473 1.75979 14 1.63261 14 1.5V0.5C14 0.367392 13.9473 0.240215 13.8536 0.146447C13.7598 0.0526784 13.6326 0 13.5 0Z" fill="white"/>
</svg>
