<svg width="14" height="16" viewBox="0 0 14 16" fill="none" xmlns="http://www.w3.org/2000/svg">
<path d="M0 14.5C0 15.3281 0.671875 16 1.5 16H12.5C13.3281 16 14 15.3281 14 14.5V6H0V14.5ZM2 8.5C2 8.225 2.225 8 2.5 8H5.5C5.775 8 6 8.225 6 8.5V11.5C6 11.775 5.775 12 5.5 12H2.5C2.225 12 2 11.775 2 11.5V8.5ZM12.5 2H11V0.5C11 0.225 10.775 0 10.5 0H9.5C9.225 0 9 0.225 9 0.5V2H5V0.5C5 0.225 4.775 0 4.5 0H3.5C3.225 0 3 0.225 3 0.5V2H1.5C0.671875 2 0 2.67188 0 3.5V5H14V3.5C14 2.67188 13.3281 2 12.5 2Z" fill="#4A4A4A"/>
</svg>
