<svg width="16" height="16" viewBox="0 0 16 16" fill="none" xmlns="http://www.w3.org/2000/svg">
<path d="M15.6969 6.9625C15.8187 6.86563 16 6.95625 16 7.10938V13.5C16 14.3281 15.3281 15 14.5 15H1.5C0.671875 15 0 14.3281 0 13.5V7.1125C0 6.95625 0.178125 6.86875 0.303125 6.96562C1.00312 7.50937 1.93125 8.2 5.11875 10.5156C5.77813 10.9969 6.89062 12.0094 8 12.0031C9.11563 12.0125 10.25 10.9781 10.8844 10.5156C14.0719 8.2 14.9969 7.50625 15.6969 6.9625ZM8 11C8.725 11.0125 9.76875 10.0875 10.2937 9.70625C14.4406 6.69688 14.7562 6.43437 15.7125 5.68437C15.8937 5.54375 16 5.325 16 5.09375V4.5C16 3.67188 15.3281 3 14.5 3H1.5C0.671875 3 0 3.67188 0 4.5V5.09375C0 5.325 0.10625 5.54062 0.2875 5.68437C1.24375 6.43125 1.55938 6.69688 5.70625 9.70625C6.23125 10.0875 7.275 11.0125 8 11Z" fill="#DBDBDB"/>
</svg>
