<svg width="18" height="16" viewBox="0 0 18 16" fill="none" xmlns="http://www.w3.org/2000/svg">
<g clip-path="url(#clip0)">
<path d="M8.76154 4.63303L2.99998 9.37834V14.4999C2.99998 14.6325 3.05266 14.7597 3.14643 14.8535C3.24019 14.9472 3.36737 14.9999 3.49998 14.9999L7.00185 14.9908C7.13403 14.9902 7.26056 14.9372 7.35379 14.8435C7.44702 14.7498 7.49936 14.623 7.49935 14.4908V11.4999C7.49935 11.3673 7.55203 11.2401 7.6458 11.1463C7.73957 11.0526 7.86675 10.9999 7.99935 10.9999H9.99936C10.132 10.9999 10.2591 11.0526 10.3529 11.1463C10.4467 11.2401 10.4994 11.3673 10.4994 11.4999V14.4887C10.4991 14.5544 10.5119 14.6196 10.537 14.6805C10.562 14.7413 10.5988 14.7966 10.6452 14.8432C10.6917 14.8898 10.7469 14.9268 10.8077 14.952C10.8684 14.9772 10.9336 14.9902 10.9994 14.9902L14.5 14.9999C14.6326 14.9999 14.7598 14.9472 14.8535 14.8535C14.9473 14.7597 15 14.6325 15 14.4999V9.3749L9.23967 4.63303C9.17195 4.57844 9.08759 4.54867 9.0006 4.54867C8.91362 4.54867 8.82926 4.57844 8.76154 4.63303ZM17.8625 7.85834L15.25 5.7049V1.37646C15.25 1.27701 15.2105 1.18163 15.1401 1.1113C15.0698 1.04097 14.9744 1.00146 14.875 1.00146H13.125C13.0255 1.00146 12.9301 1.04097 12.8598 1.1113C12.7895 1.18163 12.75 1.27701 12.75 1.37646V3.64553L9.95217 1.34365C9.68367 1.12271 9.34676 1.00191 8.99904 1.00191C8.65133 1.00191 8.31441 1.12271 8.04592 1.34365L0.135605 7.85834C0.0976324 7.88973 0.0662161 7.92829 0.0431511 7.97182C0.0200861 8.01535 0.00582446 8.063 0.00118114 8.11204C-0.00346217 8.16109 0.0016038 8.21057 0.0160896 8.25765C0.0305754 8.30474 0.0541971 8.34851 0.0856051 8.38646L0.88248 9.35522C0.913802 9.3933 0.952329 9.42484 0.995854 9.44801C1.03938 9.47119 1.08705 9.48556 1.13613 9.49029C1.18522 9.49502 1.23475 9.49003 1.28191 9.47559C1.32906 9.46115 1.3729 9.43756 1.41092 9.40615L8.76154 3.35178C8.82926 3.29719 8.91362 3.26742 9.0006 3.26742C9.08759 3.26742 9.17195 3.29719 9.23967 3.35178L16.5906 9.40615C16.6286 9.43756 16.6723 9.46118 16.7194 9.47567C16.7665 9.49015 16.816 9.49522 16.865 9.49058C16.9141 9.48593 16.9617 9.47167 17.0053 9.44861C17.0488 9.42554 17.0873 9.39412 17.1187 9.35615L17.9156 8.3874C17.947 8.34923 17.9705 8.30523 17.9848 8.25794C17.9991 8.21065 18.004 8.16099 17.999 8.11183C17.9941 8.06266 17.9795 8.01496 17.956 7.97146C17.9326 7.92796 17.9008 7.88951 17.8625 7.85834Z" fill="white"/>
</g>
<defs>
<clipPath id="clip0">
<rect width="18" height="16" fill="white"/>
</clipPath>
</defs>
</svg>
