<svg width="16" height="16" viewBox="0 0 16 16" fill="none" xmlns="http://www.w3.org/2000/svg">
<path d="M0.625156 16C0.465875 16 0.309031 15.9391 0.19 15.8237C0.00734375 15.6467 -0.04975 15.3766 0.0455937 15.1407L1.46469 11.6303C0.505062 10.3829 0 8.91953 0 7.375C0 5.39453 0.839219 3.53572 2.36313 2.14097C3.87159 0.760344 5.8735 0 8 0C10.1265 0 12.1284 0.760344 13.6369 2.14097C15.1608 3.53572 16 5.39453 16 7.375C16 8.79525 15.5613 10.1743 14.7312 11.363C14.5335 11.646 14.1439 11.7152 13.8609 11.5176C13.5779 11.3199 13.5087 10.9303 13.7063 10.6473C14.3891 9.66953 14.75 8.53797 14.75 7.375C14.75 3.99766 11.722 1.25 8 1.25C4.27803 1.25 1.25 3.99766 1.25 7.375C1.25 8.74322 1.73678 10.0375 2.65769 11.1179C2.80875 11.2951 2.84878 11.5417 2.76147 11.7576L1.78128 14.1823L4.63581 12.9239C4.79403 12.8542 4.97412 12.8531 5.13319 12.921C6.03381 13.3052 6.99831 13.5 8 13.5C9.15287 13.5 10.2906 13.2317 11.2902 12.724C11.598 12.5677 11.9742 12.6905 12.1305 12.9982C12.2867 13.306 12.164 13.6822 11.8562 13.8385C10.6821 14.4348 9.34866 14.75 8 14.75C6.9225 14.75 5.88016 14.5565 4.89762 14.1746L0.877125 15.9469C0.796063 15.9826 0.71025 16 0.625156 16ZM8.625 10.1562V6.78125C8.625 6.43606 8.34519 6.15625 8 6.15625C7.65481 6.15625 7.375 6.43606 7.375 6.78125V10.1562C7.375 10.5014 7.65481 10.7812 8 10.7812C8.34519 10.7812 8.625 10.5014 8.625 10.1562ZM8 4C7.65481 4 7.375 4.27981 7.375 4.625C7.375 4.97019 7.65481 5.25 8 5.25C8.34519 5.25 8.625 4.97019 8.625 4.625C8.625 4.27981 8.34519 4 8 4Z" fill="#DBDBDB"/>
</svg>
