<svg width="24" height="25" viewBox="0 0 24 25" fill="none" xmlns="http://www.w3.org/2000/svg">
<path d="M22.2857 10.1429H14.5714V2.42864C14.5714 1.48203 13.8038 0.714355 12.8571 0.714355H11.1429C10.1962 0.714355 9.42857 1.48203 9.42857 2.42864V10.1429H1.71429C0.767679 10.1429 0 10.9106 0 11.8572V13.5715C0 14.5181 0.767679 15.2858 1.71429 15.2858H9.42857V23.0001C9.42857 23.9467 10.1962 24.7144 11.1429 24.7144H12.8571C13.8038 24.7144 14.5714 23.9467 14.5714 23.0001V15.2858H22.2857C23.2323 15.2858 24 14.5181 24 13.5715V11.8572C24 10.9106 23.2323 10.1429 22.2857 10.1429Z" fill="white"/>
</svg>
