<svg width="16" height="16" viewBox="0 0 16 16" fill="none" xmlns="http://www.w3.org/2000/svg">
<path d="M15.5312 8.53143L10.2812 13.7814C9.8125 14.2502 9 13.9221 9 13.2502V10.2502H4.75C4.33437 10.2502 4 9.9158 4 9.50018V6.50018C4 6.08455 4.33437 5.75018 4.75 5.75018H9V2.75018C9 2.08143 9.80937 1.75018 10.2812 2.21893L15.5312 7.46893C15.8219 7.76268 15.8219 8.23768 15.5312 8.53143ZM6 13.6252V12.3752C6 12.1689 5.83125 12.0002 5.625 12.0002H3C2.44688 12.0002 2 11.5533 2 11.0002V5.00018C2 4.44705 2.44688 4.00018 3 4.00018H5.625C5.83125 4.00018 6 3.83143 6 3.62518V2.37518C6 2.16893 5.83125 2.00018 5.625 2.00018H3C1.34375 2.00018 0 3.34393 0 5.00018V11.0002C0 12.6564 1.34375 14.0002 3 14.0002H5.625C5.83125 14.0002 6 13.8314 6 13.6252Z" fill="#FF3860"/>
</svg>
