<svg width="16" height="16" viewBox="0 0 16 16" fill="none" xmlns="http://www.w3.org/2000/svg">
<path d="M13 14H10.375C10.1687 14 10 13.8313 10 13.625V12.375C10 12.1687 10.1687 12 10.375 12H13C13.5531 12 14 11.5531 14 11V5C14 4.44688 13.5531 4 13 4H10.375C10.1687 4 10 3.83125 10 3.625V2.375C10 2.16875 10.1687 2 10.375 2H13C14.6562 2 16 3.34375 16 5V11C16 12.6562 14.6562 14 13 14ZM11.5312 7.71875L6.28125 2.46875C5.8125 2 5 2.32812 5 3V6H0.75C0.334375 6 0 6.33437 0 6.75V9.75C0 10.1656 0.334375 10.5 0.75 10.5H5V13.5C5 14.1719 5.8125 14.5 6.28125 14.0312L11.5312 8.78125C11.8219 8.4875 11.8219 8.0125 11.5312 7.71875Z" fill="white"/>
</svg>
